<svg width="67" height="67" viewBox="0 0 67 67" fill="none" xmlns="http://www.w3.org/2000/svg">
<g clip-path="url(#clip0_1190_2557)">
<path d="M51.3932 35.6599C51.0119 35.6599 50.6892 35.3666 50.6599 34.9852C50.6305 34.5746 50.9239 34.2226 51.3345 34.1932C55.8665 33.8119 59.4305 29.9546 59.4305 25.3932C59.4305 20.5239 55.4705 16.5492 50.5865 16.5492C49.8532 16.5492 49.1345 16.6372 48.4305 16.8132C48.1812 16.8719 47.9319 16.8132 47.7559 16.6372C47.5799 16.4612 47.4919 16.2119 47.5359 15.9626C47.6679 15.2879 47.7265 14.5986 47.7265 13.9092C47.7265 7.85191 42.7985 2.93857 36.7559 2.93857C32.3705 2.93857 28.4105 5.54924 26.6799 9.56791C26.5185 9.93457 26.0932 10.1106 25.7265 9.94924C24.6412 9.49457 23.4825 9.25991 22.2945 9.25991C17.9679 9.25991 14.3012 12.3546 13.5825 16.6226C13.5385 16.8719 13.3772 17.0772 13.1279 17.1799C9.73987 18.5586 7.56921 21.7706 7.56921 25.3932C7.56921 29.9546 11.1185 33.8266 15.6652 34.1932C16.0759 34.2226 16.3692 34.5746 16.3399 34.9852C16.3105 35.3959 15.9585 35.6892 15.5479 35.6599C12.9812 35.4399 10.6052 34.2812 8.84521 32.3892C7.08521 30.4826 6.10254 28.0039 6.10254 25.3932C6.10254 21.3012 8.47854 17.6639 12.1745 15.9919C13.1719 11.2252 17.3519 7.80791 22.2652 7.80791C23.4092 7.80791 24.5385 7.99857 25.6092 8.36524C27.7065 4.17057 32.0039 1.48657 36.7412 1.48657C43.6052 1.48657 49.1785 7.05991 49.1785 13.9239C49.1785 14.3492 49.1639 14.7746 49.1199 15.1999C49.6039 15.1266 50.0879 15.0972 50.5865 15.0972C56.2625 15.0972 60.8972 19.7172 60.8972 25.4079C60.8972 28.0039 59.9292 30.4972 58.1545 32.4039C56.3945 34.2959 54.0185 35.4692 51.4519 35.6746C51.4372 35.6599 51.4079 35.6599 51.3932 35.6599Z" fill="#4A2D7F" stroke="#4A2D7F" stroke-width="0.5"/>
<path d="M15.6064 49.8572C15.2104 49.8572 14.8877 49.5492 14.873 49.1532C14.873 49.0799 14.873 49.0212 14.873 48.9479V27.2265C14.873 24.4838 17.1024 22.2545 19.845 22.2545H24.0837C24.4944 22.2545 24.817 22.5772 24.817 22.9878C24.817 23.3985 24.4944 23.7212 24.0837 23.7212H19.845C17.909 23.7212 16.3397 25.2905 16.3397 27.2265V48.9625V49.1092C16.3544 49.5199 16.0464 49.8572 15.6357 49.8718C15.6357 49.8572 15.621 49.8572 15.6064 49.8572Z" fill="#4A2D7F" stroke="#4A2D7F" stroke-width="0.5"/>
<path d="M51.3933 46.1172C50.9826 46.1172 50.6599 45.7945 50.6599 45.3838V23.7212H24.8173V45.3838C24.8173 45.7945 24.4946 46.1172 24.0839 46.1172C23.6733 46.1172 23.3506 45.7945 23.3506 45.3838V22.9878C23.3506 22.5772 23.6733 22.2545 24.0839 22.2545H51.3933C51.8039 22.2545 52.1266 22.5772 52.1266 22.9878V45.3838C52.1266 45.7798 51.8039 46.1172 51.3933 46.1172Z" fill="#4A2D7F" stroke="#4A2D7F" stroke-width="0.5"/>
<path d="M51.393 53.9345H19.5224C16.9557 53.9345 14.873 51.8519 14.873 49.2852C14.873 46.7185 16.9557 44.6359 19.5224 44.6359H51.393C51.8037 44.6359 52.1264 44.9585 52.1264 45.3692V53.1865C52.1264 53.6119 51.8037 53.9345 51.393 53.9345ZM19.5224 46.1172C17.777 46.1172 16.3397 47.5399 16.3397 49.2999C16.3397 51.0599 17.7624 52.4825 19.5224 52.4825H50.6597V46.1319L19.5224 46.1172Z" fill="#4A2D7F" stroke="#4A2D7F" stroke-width="0.5"/>
<path d="M45.5266 34.7065H29.9506C28.9239 34.7065 28.0879 33.8705 28.0879 32.8439V27.9452C28.0879 26.9185 28.9239 26.0825 29.9506 26.0825H45.5266C46.5532 26.0825 47.3892 26.9185 47.3892 27.9452V32.8439C47.3892 33.8705 46.5532 34.7065 45.5266 34.7065ZM29.9506 27.5492C29.7452 27.5492 29.5546 27.7252 29.5546 27.9452V32.8439C29.5546 33.0492 29.7306 33.2399 29.9506 33.2399H45.5266C45.7466 33.2399 45.9226 33.0639 45.9226 32.8439V27.9452C45.9226 27.7399 45.7466 27.5492 45.5266 27.5492H29.9506Z" fill="#4A2D7F" stroke="#4A2D7F" stroke-width="0.5"/>
<path d="M46.6559 38.4172H28.8212C28.4106 38.4172 28.0879 38.0946 28.0879 37.6839C28.0879 37.2732 28.4106 36.9506 28.8212 36.9506H46.6412C47.0519 36.9506 47.3746 37.2732 47.3746 37.6839C47.3746 38.0946 47.0666 38.4172 46.6559 38.4172Z" fill="#4A2D7F" stroke="#4A2D7F" stroke-width="0.5"/>
<path d="M46.6559 41.9812H28.8212C28.4106 41.9812 28.0879 41.6585 28.0879 41.2479C28.0879 40.8372 28.4106 40.5145 28.8212 40.5145H46.6412C47.0519 40.5145 47.3746 40.8372 47.3746 41.2479C47.3746 41.6585 47.0666 41.9812 46.6559 41.9812Z" fill="#4A2D7F" stroke="#4A2D7F" stroke-width="0.5"/>
<path d="M51.3933 50.0185H33.4999C33.0893 50.0185 32.7666 49.6959 32.7666 49.2852C32.7666 48.8745 33.0893 48.5519 33.4999 48.5519H51.3933C51.8039 48.5519 52.1266 48.8745 52.1266 49.2852C52.1266 49.6959 51.8039 50.0185 51.3933 50.0185Z" fill="#4A2D7F" stroke="#4A2D7F" stroke-width="0.5"/>
<path d="M35.4506 60.7839C35.04 60.7839 34.7173 60.4612 34.7173 60.0506V53.2012C34.7173 52.7906 35.04 52.4679 35.4506 52.4679C35.8613 52.4679 36.184 52.7906 36.184 53.2012V60.0506C36.184 60.4466 35.8613 60.7839 35.4506 60.7839Z" fill="#4A2D7F" stroke="#4A2D7F" stroke-width="0.5"/>
<path d="M35.4506 66.3133C33.5146 66.3133 31.9453 64.7439 31.9453 62.8079C31.9453 60.8719 33.5146 59.3026 35.4506 59.3026C37.3866 59.3026 38.956 60.8719 38.956 62.8079C38.956 64.7439 37.3866 66.3133 35.4506 66.3133ZM35.4506 60.7839C34.336 60.7839 33.412 61.6933 33.412 62.8226C33.412 63.9519 34.3213 64.8613 35.4506 64.8613C36.58 64.8613 37.4893 63.9519 37.4893 62.8226C37.4893 61.6933 36.58 60.7839 35.4506 60.7839Z" fill="#4A2D7F" stroke="#4A2D7F" stroke-width="0.5"/>
<path d="M59.02 63.5413H38.2226C37.812 63.5413 37.4893 63.2186 37.4893 62.8079C37.4893 62.3973 37.812 62.0746 38.2226 62.0746H59.02C59.4306 62.0746 59.7533 62.3973 59.7533 62.8079C59.7533 63.2186 59.4306 63.5413 59.02 63.5413ZM32.6786 63.5413H11.8813C11.4706 63.5413 11.1479 63.2186 11.1479 62.8079C11.1479 62.3973 11.4706 62.0746 11.8813 62.0746H32.6786C33.0893 62.0746 33.4119 62.3973 33.4119 62.8079C33.4119 63.2186 33.0893 63.5413 32.6786 63.5413Z" fill="#4A2D7F" stroke="#4A2D7F" stroke-width="0.5"/>
</g>
<defs>
<clipPath id="clip0_1190_2557">
<rect width="66" height="66" fill="white" transform="translate(0.5 0.899902)"/>
</clipPath>
</defs>
</svg>
