<svg width="67" height="67" viewBox="0 0 67 67" fill="none" xmlns="http://www.w3.org/2000/svg">
<g clip-path="url(#clip0_1190_2607)">
<path d="M7.54503 46.789C12.4495 48.8359 18.28 47.0544 21.269 42.6716C21.2695 42.6711 21.27 42.6701 21.2705 42.6696C21.271 42.6691 21.271 42.6691 21.271 42.6685C22.5596 40.7793 23.2404 38.5672 23.2404 36.2711C23.2404 32.1365 21.0318 28.3776 17.4542 26.3649V23.9444C17.4542 22.0818 15.9385 20.5662 14.0754 20.5662H9.66644C7.80334 20.5662 6.28819 22.0818 6.28819 23.9444V29.2558C6.28819 31.1566 7.24341 32.8374 8.69864 33.846V35.0178H8.23689C5.77911 35.0178 3.66576 36.5198 2.76492 38.6538C2.56401 37.8824 2.46028 37.0833 2.46028 36.2711C2.46028 34.051 3.24782 31.8963 4.67838 30.2034C5.02733 29.79 4.97546 29.1717 4.56206 28.8222C4.14865 28.4727 3.5303 28.5251 3.18085 28.9385C1.45219 30.9844 0.5 33.5887 0.5 36.2711C0.5 38.5692 1.18179 40.7823 2.47136 42.6706C3.72316 44.5065 5.4931 45.9395 7.54503 46.789ZM14.8751 36.9785H15.505C17.6969 36.9785 19.4804 38.7621 19.4804 40.954V41.8055C18.7664 42.7864 17.8782 43.6132 16.8615 44.2497V42.6534C16.8615 42.1121 16.4229 41.673 15.8811 41.673C15.3398 41.673 14.9012 42.1116 14.9012 42.6534V45.0639L13.2683 38.8094C14.0175 38.4378 14.6026 37.7787 14.8751 36.9785ZM12.1902 42.4399L13.0064 45.5674H11.5321L12.1902 42.4399ZM21.2801 36.2711C21.2801 37.0828 21.1769 37.8809 20.976 38.6513C20.0751 36.5183 17.9618 35.0178 15.505 35.0178H15.0432V33.8465C16.4985 32.8374 17.4542 31.1566 17.4542 29.2558V28.6958C19.844 30.4522 21.2801 33.2393 21.2801 36.2711ZM8.24847 23.9444C8.24847 23.1624 8.88445 22.5264 9.66644 22.5264H14.0754C14.8574 22.5264 15.4934 23.1629 15.4934 23.9444V25.1771C15.1359 25.0114 14.7446 24.9072 14.3333 24.876C14.3227 24.3432 13.8886 23.9147 13.3539 23.9147C12.8226 23.9147 12.3911 24.3377 12.375 24.8649H9.66644C9.16039 24.8649 8.6795 24.9767 8.24847 25.1771V23.9444ZM8.24847 28.2436C8.24847 27.4616 8.88445 26.8252 9.66644 26.8252H14.0754C14.8574 26.8252 15.4934 27.4616 15.4934 28.2436V29.2558C15.4934 31.2533 13.8685 32.8787 11.8709 32.8787C9.8734 32.8787 8.24797 31.2533 8.24797 29.2558V28.2436H8.24847ZM11.8709 34.839C12.2874 34.839 12.6927 34.7917 13.083 34.7051V35.9468C13.0825 35.9594 13.082 35.972 13.082 35.9846C13.0724 36.6422 12.5296 37.1769 11.8714 37.1769C11.2128 37.1769 10.6695 36.6422 10.6599 35.9846C10.6599 35.972 10.6594 35.9594 10.6589 35.9468V34.7051C11.0492 34.7917 11.4545 34.839 11.8709 34.839ZM8.23689 36.9785H8.86682C9.19009 37.9292 9.95598 38.6805 10.9127 38.9872L9.56422 45.3987C9.34065 45.3423 9.1196 45.2754 8.90106 45.2024V42.6529C8.90106 42.1116 8.46198 41.673 7.92067 41.673C7.37936 41.673 6.94078 42.1116 6.94078 42.6529V44.2874C5.89896 43.6464 4.98956 42.8075 4.26144 41.807V40.954C4.26144 38.7621 6.04498 36.9785 8.23689 36.9785Z" fill="#4A2D7F"/>
<path d="M64.5308 42.6685C65.8194 40.7793 66.5002 38.5672 66.5002 36.2711C66.5002 35.7298 66.0616 35.2912 65.5198 35.2912C64.9785 35.2912 64.5399 35.7298 64.5399 36.2711C64.5399 37.0828 64.4361 37.8809 64.2357 38.6513C63.3344 36.5183 61.2215 35.0178 58.7643 35.0178H58.303V33.8465C59.7583 32.8374 60.7135 31.1566 60.7135 29.2558V28.6968C62.2392 29.8182 63.3928 31.3701 64.0222 33.1849C64.1627 33.5897 64.5424 33.844 64.9482 33.844C65.055 33.844 65.1633 33.8264 65.2695 33.7896C65.7811 33.6119 66.052 33.0535 65.8743 32.5424C64.9603 29.9068 63.133 27.729 60.7135 26.3674V23.9444C60.7135 22.0818 59.1978 20.5662 57.3347 20.5662H52.9257C51.0631 20.5662 49.5475 22.0818 49.5475 23.9444V26.3659C45.9623 28.3826 43.7593 32.1229 43.7593 36.2711C43.7593 38.5692 44.4411 40.7823 45.7306 42.6706C46.9875 44.5135 48.7373 45.935 50.7912 46.7835C50.7957 46.785 50.7998 46.787 50.8043 46.789L50.8068 46.79C52.178 47.355 53.6327 47.6415 55.1297 47.6415C56.6474 47.6415 58.1223 47.3469 59.514 46.7654C59.5196 46.7628 59.5251 46.7603 59.5302 46.7583C61.5579 45.9058 63.2866 44.4929 64.5288 42.6711L64.5303 42.6696L64.5308 42.6685ZM62.7402 40.954V41.8055C62.7327 41.8156 62.7261 41.8256 62.7186 41.8357C62.714 41.8422 62.7095 41.8483 62.7045 41.8548C61.997 42.8141 61.1208 43.6233 60.1208 44.2492V42.6529C60.1208 42.1116 59.6822 41.673 59.1409 41.673C58.5996 41.673 58.1605 42.1116 58.1605 42.6529V45.1802C57.1877 45.511 56.1715 45.6812 55.1297 45.6812C54.109 45.6812 53.1135 45.5181 52.1603 45.2003V42.6529C52.1603 42.1116 51.7218 41.673 51.1805 41.673C50.6386 41.673 50.2001 42.1116 50.2001 42.6529V44.2874C49.1582 43.6464 48.2493 42.8075 47.5207 41.807V40.954C47.5207 38.7621 49.3043 36.9785 51.4967 36.9785H52.1261C52.5526 38.2303 53.744 39.1377 55.1312 39.1377C56.5175 39.1377 57.7088 38.2303 58.1348 36.9785H58.7643C60.9567 36.9785 62.7402 38.7621 62.7402 40.954ZM56.3427 35.9468C56.3422 35.9594 56.3417 35.972 56.3417 35.9846C56.3322 36.6422 55.7894 37.1769 55.1312 37.1769C54.4726 37.1769 53.9288 36.6422 53.9197 35.9846C53.9192 35.972 53.9192 35.9594 53.9182 35.9468V34.7051C54.3089 34.7917 54.7143 34.839 55.1307 34.839C55.5471 34.839 55.9525 34.7917 56.3427 34.7051V35.9468ZM58.7532 29.2558C58.7532 31.2533 57.1283 32.8787 55.1307 32.8787C53.1332 32.8787 51.5078 31.2533 51.5078 29.2558V28.2436C51.5078 27.4616 52.1442 26.8252 52.9257 26.8252H57.3347C58.1167 26.8252 58.7532 27.4616 58.7532 28.2436V29.2558ZM51.5078 23.9444C51.5078 23.1624 52.1442 22.5264 52.9257 22.5264H57.3352C58.1172 22.5264 58.7532 23.1629 58.7532 23.9444V25.1771C58.3957 25.0114 58.0044 24.9072 57.5925 24.876C57.5825 24.3432 57.1484 23.9147 56.6136 23.9147C56.0824 23.9147 55.6509 24.3377 55.6348 24.8649H52.9257C52.4197 24.8649 51.9393 24.9767 51.5078 25.1771V23.9444ZM49.5475 28.6923V29.2558C49.5475 31.1566 50.5032 32.8374 51.9579 33.8465V35.0183H51.4967C49.0389 35.0183 46.925 36.5198 46.0247 38.6538C45.8238 37.8829 45.7201 37.0838 45.7201 36.2711C45.7201 33.2267 47.1531 30.4466 49.5475 28.6923Z" fill="#4A2D7F"/>
<path d="M11.8256 18.4971C12.3674 18.4971 12.806 18.058 12.806 17.5167V13.933C12.806 9.6756 16.2698 6.21175 20.5273 6.21175H46.6454C50.9028 6.21175 54.3662 9.6756 54.3662 13.933V16.8636C54.3662 17.4049 54.8053 17.8435 55.3466 17.8435C55.8879 17.8435 56.327 17.4049 56.327 16.8636V13.933C56.327 8.5945 51.9839 4.25146 46.6454 4.25146H20.5273C15.1887 4.25146 10.8457 8.5945 10.8457 13.933V17.5167C10.8457 18.058 11.2843 18.4971 11.8256 18.4971Z" fill="#4A2D7F"/>
<path d="M55.3466 49.2101C54.8053 49.2101 54.3662 49.6487 54.3662 50.19V53.7742C54.3662 58.0316 50.9028 61.4949 46.6454 61.4949H20.5273C16.2698 61.4949 12.806 58.0316 12.806 53.7742V50.8436C12.806 50.3023 12.3674 49.8637 11.8256 49.8637C11.2843 49.8637 10.8457 50.3023 10.8457 50.8436V53.7742C10.8457 59.1127 15.1887 63.4557 20.5273 63.4557H46.6454C51.9839 63.4557 56.327 59.1127 56.327 53.7742V50.19C56.327 49.6487 55.8879 49.2101 55.3466 49.2101Z" fill="#4A2D7F"/>
<path d="M30.9979 29.8253C30.4878 29.5307 29.879 29.5307 29.3689 29.8253C28.8588 30.1194 28.5547 30.6471 28.5547 31.2357V39.4772C28.5547 40.0663 28.8588 40.5935 29.3689 40.8881C29.6242 41.0351 29.9037 41.1086 30.1831 41.1086C30.4631 41.1086 30.7426 41.0351 30.9979 40.8881L38.135 36.7671C38.6451 36.4725 38.9493 35.9453 38.9493 35.3567C38.9493 34.7675 38.6451 34.2403 38.135 33.9458L30.9979 29.8253ZM30.515 38.9031V31.8103L36.6577 35.3567L30.515 38.9031Z" fill="#4A2D7F"/>
</g>
<defs>
<clipPath id="clip0_1190_2607">
<rect width="66" height="66" fill="white" transform="translate(0.5 0.899902)"/>
</clipPath>
</defs>
</svg>
