<svg width="77" height="78" viewBox="0 0 77 78" fill="none" xmlns="http://www.w3.org/2000/svg">
<path d="M9.67255 18.4468C11.0388 18.4452 12.3845 18.1135 13.595 17.4799C14.8055 16.8464 15.8451 15.9298 16.6252 14.8081C16.7597 14.6149 16.8346 14.3865 16.8406 14.1511C16.8466 13.9157 16.7833 13.6838 16.6588 13.484C16.5342 13.2843 16.3537 13.1255 16.1397 13.0273C15.9257 12.9291 15.6876 12.8959 15.4549 12.9317C14.5894 13.0754 13.703 13.0281 12.8577 12.793C12.0124 12.5579 11.2287 12.1408 10.5617 11.5709C9.89462 11.001 9.36027 10.2921 8.9961 9.49393C8.63194 8.69572 8.44677 7.82751 8.45357 6.95017C8.45223 5.71387 8.83125 4.50708 9.53919 3.49354C9.67384 3.3002 9.74876 3.07159 9.75466 2.83606C9.76055 2.60053 9.69715 2.36846 9.57234 2.16864C9.44753 1.96881 9.26679 1.81003 9.05256 1.712C8.83832 1.61397 8.60001 1.581 8.36721 1.61718C6.26003 1.94494 4.3542 3.05592 3.0307 4.72804C1.70721 6.40016 1.06358 8.51019 1.22849 10.6363C1.3934 12.7624 2.35469 14.748 3.92019 16.196C5.48568 17.6441 7.54004 18.4479 9.67255 18.4468ZM6.28758 4.9434C6.02064 6.04039 5.97561 7.17966 6.15511 8.29429C6.33462 9.40893 6.73505 10.4765 7.33289 11.4342C7.93073 12.3919 8.71392 13.2205 9.63646 13.8713C10.559 14.5221 11.6023 14.982 12.705 15.224C11.3437 16.0103 9.7302 16.2372 8.20483 15.8567C6.67946 15.4761 5.36153 14.518 4.52905 13.1844C3.69657 11.8508 3.41464 10.246 3.74272 8.70849C4.0708 7.17099 4.98325 5.82104 6.28758 4.9434Z" fill="#614298"/>
<path d="M66.1719 5.2124C64.9821 5.2124 63.819 5.56521 62.8298 6.22622C61.8405 6.88722 61.0695 7.82674 60.6142 8.92595C60.1589 10.0252 60.0397 11.2347 60.2718 12.4016C60.504 13.5685 61.0769 14.6404 61.9182 15.4817C62.7595 16.323 63.8314 16.896 64.9983 17.1281C66.1652 17.3602 67.3747 17.241 68.474 16.7857C69.5732 16.3304 70.5127 15.5594 71.1737 14.5701C71.8347 13.5809 72.1875 12.4178 72.1875 11.228C72.1856 9.63316 71.5512 8.10415 70.4235 6.97641C69.2958 5.84866 67.7667 5.21427 66.1719 5.2124ZM66.1719 14.8374C65.458 14.8374 64.7602 14.6257 64.1666 14.2291C63.5731 13.8325 63.1104 13.2688 62.8373 12.6093C62.5641 11.9497 62.4926 11.224 62.6319 10.5239C62.7711 9.82372 63.1149 9.18059 63.6197 8.67581C64.1244 8.17103 64.7676 7.82727 65.4677 7.68801C66.1679 7.54874 66.8936 7.62021 67.5531 7.8934C68.2127 8.16658 68.7764 8.62921 69.173 9.22277C69.5696 9.81632 69.7813 10.5142 69.7813 11.228C69.7802 12.185 69.3996 13.1024 68.7229 13.7791C68.0463 14.4557 67.1288 14.8364 66.1719 14.8374Z" fill="#614298"/>
<path d="M64.9688 1.60303H67.375V4.00928H64.9688V1.60303Z" fill="#614298"/>
<path d="M64.9688 18.4468H67.375V20.853H64.9688V18.4468Z" fill="#614298"/>
<path d="M73.3906 10.0249H75.7969V12.4312H73.3906V10.0249Z" fill="#614298"/>
<path d="M56.5469 10.0249H58.9531V12.4312H56.5469V10.0249Z" fill="#614298"/>
<path d="M70.4336 5.29956L72.1351 3.59808L73.8365 5.29956L72.1351 7.00104L70.4336 5.29956Z" fill="#614298"/>
<path d="M58.5166 17.2058L60.2181 15.5043L61.9196 17.2058L60.2181 18.9073L58.5166 17.2058Z" fill="#614298"/>
<path d="M70.4019 17.1678L72.1033 15.4664L73.8048 17.1678L72.1033 18.8693L70.4019 17.1678Z" fill="#614298"/>
<path d="M58.4941 5.26294L60.1956 3.56146L61.8971 5.26294L60.1956 6.96442L58.4941 5.26294Z" fill="#614298"/>
<path d="M69.6751 48.0796V43.7124C69.6704 39.5657 68.0211 35.5902 65.0889 32.658C62.1567 29.7258 58.1812 28.0765 54.0345 28.0718H49.222C45.2311 28.0727 41.393 29.6063 38.5002 32.3556C35.6074 29.6063 31.7693 28.0727 27.7784 28.0718H22.9659C18.8192 28.0765 14.8437 29.7258 11.9115 32.658C8.97935 35.5902 7.32999 39.5657 7.3253 43.7124V48.0796L1.78434 54.544C1.5067 54.8677 1.32009 55.2593 1.2436 55.6789C1.16712 56.0984 1.20352 56.5307 1.34907 56.9315C1.49462 57.3324 1.74409 57.6873 2.07194 57.96C2.39978 58.2327 2.79422 58.4134 3.21486 58.4835L7.32533 59.1685V62.9624C7.32794 65.1952 8.21608 67.3358 9.79492 68.9147C11.3738 70.4935 13.5144 71.3817 15.7472 71.3843H24.1691V76.1968H26.5753V70.1812C26.5754 70.0231 26.5443 69.8667 26.4838 69.7207C26.4234 69.5747 26.3348 69.4421 26.223 69.3303C26.1113 69.2186 25.9787 69.13 25.8327 69.0695C25.6867 69.0091 25.5302 68.978 25.3722 68.978H15.7472C14.1523 68.9762 12.6233 68.3418 11.4956 67.214C10.3678 66.0863 9.73346 64.5573 9.73158 62.9624V58.1499C9.7317 57.8651 9.63073 57.5895 9.44666 57.3722C9.26259 57.1549 9.00736 57.01 8.72643 56.9632L3.6108 56.1102L9.44197 49.3074C9.62882 49.0895 9.73154 48.8119 9.73155 48.5249V43.7124C9.73551 40.2036 11.1311 36.8397 13.6122 34.3587C16.0933 31.8776 19.4572 30.482 22.9659 30.478H27.7784C31.1713 30.4786 34.4332 31.7881 36.8847 34.1337C34.7448 36.8681 33.5819 40.2402 33.5814 43.7124V52.1343H35.9876V43.7124C35.9882 40.9359 36.8677 38.2308 38.5002 35.9849C40.1327 38.2308 41.0123 40.9359 41.0128 43.7124V52.1343H43.419V43.7124C43.4186 40.2402 42.2557 36.8681 40.1157 34.1337C42.5672 31.7881 45.8291 30.4786 49.222 30.478H54.0345C57.5433 30.482 60.9072 31.8776 63.3882 34.3587C65.8693 36.8397 67.2649 40.2036 67.2689 43.7124V48.5249C67.2689 48.812 67.3716 49.0895 67.5585 49.3074L73.3897 56.1102L68.274 56.9632C67.9931 57.01 67.7379 57.1549 67.5538 57.3722C67.3697 57.5895 67.2688 57.8651 67.2689 58.1499V62.9624C67.267 64.5573 66.6326 66.0863 65.5049 67.214C64.3771 68.3418 62.8481 68.9762 61.2533 68.978H51.6283C51.4703 68.978 51.3138 69.0091 51.1678 69.0695C51.0218 69.13 50.8892 69.2186 50.7774 69.3303C50.6657 69.4421 50.5771 69.5747 50.5166 69.7207C50.4562 69.8667 50.4251 70.0231 50.4251 70.1812V76.1968H52.8314V71.3843H61.2533C63.4861 71.3817 65.6267 70.4935 67.2055 68.9147C68.7844 67.3358 69.6725 65.1952 69.6751 62.9624V59.1686L73.785 58.4836C74.2056 58.4136 74.6 58.2331 74.9279 57.9606C75.2558 57.688 75.5054 57.3332 75.651 56.9325C75.7967 56.5318 75.8332 56.0996 75.7569 55.6801C75.6806 55.2606 75.4941 54.869 75.2167 54.5452L69.6751 48.0796Z" fill="#614298"/>
<path d="M57.75 49.728C62.2776 49.728 65.7765 45.2375 65.9234 45.0471C66.0845 44.8367 66.1719 44.579 66.1719 44.314C66.1719 44.0489 66.0845 43.7912 65.9234 43.5808C65.7765 43.3905 62.2776 38.8999 57.75 38.8999C53.2224 38.8999 49.7235 43.3905 49.5766 43.5808C49.4155 43.7912 49.3281 44.0489 49.3281 44.314C49.3281 44.579 49.4155 44.8367 49.5766 45.0471C49.7235 45.2375 53.2224 49.728 57.75 49.728ZM60.6177 42.1465C61.6342 42.7323 62.5604 43.4624 63.3674 44.314C62.5604 45.1655 61.6342 45.8956 60.6178 46.4814C61.0985 45.8612 61.3594 45.0987 61.3594 44.314C61.3594 43.5292 61.0985 42.7667 60.6177 42.1465ZM57.75 43.1108C57.988 43.1108 58.2206 43.1814 58.4184 43.3136C58.6163 43.4458 58.7705 43.6337 58.8615 43.8535C58.9526 44.0734 58.9764 44.3153 58.93 44.5487C58.8836 44.7821 58.769 44.9964 58.6007 45.1647C58.4325 45.333 58.2181 45.4475 57.9847 45.494C57.7513 45.5404 57.5094 45.5166 57.2896 45.4255C57.0697 45.3344 56.8818 45.1802 56.7496 44.9824C56.6174 44.7845 56.5469 44.5519 56.5469 44.314C56.5472 43.995 56.6741 43.6891 56.8996 43.4636C57.1252 43.238 57.431 43.1112 57.75 43.1108ZM54.8823 42.1465C54.4015 42.7667 54.1406 43.5292 54.1406 44.314C54.1406 45.0987 54.4015 45.8612 54.8823 46.4814C53.8658 45.8956 52.9396 45.1655 52.1327 44.314C52.9396 43.4624 53.8658 42.7323 54.8823 42.1465Z" fill="#614298"/>
<path d="M14.0203 41.5999L12.4482 43.421C14.1513 45.0245 16.3633 45.9792 18.6983 46.1186C21.0334 45.9789 23.2454 45.0243 24.9489 43.421L23.3768 41.5999C22.1059 42.82 20.454 43.5659 18.6983 43.7124C16.9427 43.566 15.2909 42.8201 14.0203 41.5999Z" fill="#614298"/>
<path d="M49.3281 64.1655C49.3281 62.0239 48.6931 59.9304 47.5033 58.1497C46.3135 56.3691 44.6223 54.9812 42.6437 54.1617C40.6652 53.3421 38.488 53.1277 36.3875 53.5455C34.2871 53.9633 32.3577 54.9946 30.8434 56.5089C29.329 58.0232 28.2977 59.9526 27.8799 62.0531C27.4621 64.1535 27.6766 66.3307 28.4961 68.3093C29.3157 70.2879 30.7035 71.979 32.4842 73.1688C34.2649 74.3586 36.3584 74.9937 38.5 74.9937C41.3708 74.9904 44.1231 73.8486 46.1531 71.8186C48.183 69.7886 49.3249 67.0363 49.3281 64.1655ZM30.0781 64.1655C30.0781 62.4998 30.5721 60.8716 31.4975 59.4866C32.4229 58.1016 33.7382 57.0222 35.2771 56.3847C36.816 55.7473 38.5093 55.5805 40.143 55.9055C41.7767 56.2304 43.2774 57.0325 44.4552 58.2104C45.633 59.3882 46.4351 60.8888 46.7601 62.5225C47.085 64.1562 46.9182 65.8495 46.2808 67.3884C45.6434 68.9273 44.5639 70.2427 43.1789 71.1681C41.794 72.0935 40.1657 72.5874 38.5 72.5874C36.2672 72.5848 34.1266 71.6967 32.5477 70.1178C30.9689 68.539 30.0807 66.3984 30.0781 64.1655Z" fill="#614298"/>
<path d="M39.222 65.1278L44.0345 61.5184L42.5905 59.5939L38.0988 62.9624H33.6875V65.3686H38.5C38.7604 65.3685 39.0137 65.284 39.222 65.1278Z" fill="#614298"/>
</svg>
